<svg xmlns="http://www.w3.org/2000/svg" width="1552.824" height="200.15" viewBox="0 0 1552.824 200.15">
  <g id="Group_395" data-name="Group 395" transform="translate(-240.44 -292.283)">
    <g id="Group_394" data-name="Group 394" transform="translate(240.94 293.23)">
      <path id="Path_970" data-name="Path 970" d="M240.978,295.63h61.8c37.338,0,65.028,28.678,65.028,64.306,0,35.857-27.69,64.534-65.294,64.534H274.556v51.7H240.94V295.63Zm33.654,31.185v66.51h25.715c19.789,0,33.616-14.852,33.616-33.388s-13.826-33.16-33.616-33.16H274.632Z" transform="translate(-240.94 -286.514)" fill="#fff" stroke="#fff" stroke-miterlimit="10" stroke-width="1"/>
      <path id="Path_971" data-name="Path 971" d="M334.826,295.63h33.882l64.306,180.536H397.879L386.75,444.032H316.784l-11.129,32.134H270.52Zm-6.647,116.23h47.48l-23.74-68.485Z" transform="translate(-158.164 -286.514)" fill="#fff" stroke="#fff" stroke-miterlimit="10" stroke-width="1"/>
      <path id="Path_972" data-name="Path 972" d="M317.04,295.63H355.1l78.133,122.915V295.63h33.653V476.167H431.029L350.656,349.3V476.167H317.04V295.63Z" transform="translate(-27.984 -286.514)" fill="#fff" stroke="#fff" stroke-miterlimit="10" stroke-width="1"/>
      <path id="Path_973" data-name="Path 973" d="M409.141,327.774h-48.2V295.64H491.262v32.134H442.795V476.138H409.141Z" transform="translate(94.864 -286.486)" fill="#fff" stroke="#fff" stroke-miterlimit="10" stroke-width="1"/>
      <path id="Path_974" data-name="Path 974" d="M488.944,362.742a72.6,72.6,0,0,1,62.1-57.735c48.733-6.077,85.805,27.272,85.805,73.726v12.611H519.141c4.71,20.511,20.777,34.147,44.517,34.147,18.8,0,33.122-9.914,40.073-25.487l27.462,15.839c-12.611,23.474-34.869,39.085-67.5,39.085C512.076,454.891,479.221,412.273,488.944,362.742Zm31.944.646h82.083c-4.938-19.524-19.79-29.665-40.567-29.665C542.387,333.723,526.814,345.612,520.889,363.388Z" transform="translate(448.304 -262.275)" fill="#fff" stroke="#fff" stroke-miterlimit="10" stroke-width="1"/>
      <path id="Path_975" data-name="Path 975" d="M529.32,379.726c0-47.973,35.135-75.436,71.713-75.436,19.03,0,35.857,7.673,46.492,20.283V307.253h33.387v144.68H647.525v-18.8c-10.635,13.6-27.956,21.765-46.986,21.765C565.67,454.9,529.32,427.205,529.32,379.726ZM647.3,393.476c8.546-30.919-11.661-58.761-41.288-58.761-24.727,0-43.757,19.524-43.757,44.517,0,28.64,24.575,50.29,54.165,43.871A41.662,41.662,0,0,0,647.3,393.476Z" transform="translate(566.054 -262.28)" fill="#fff" stroke="#fff" stroke-miterlimit="10" stroke-width="1"/>
      <path id="Path_976" data-name="Path 976" d="M574.27,294.98h33.615V477.985H574.27Z" transform="translate(691.841 -288.333)" fill="#fff" stroke="#fff" stroke-miterlimit="10" stroke-width="1"/>
      <path id="Path_977" data-name="Path 977" d="M586.84,338.2h24.728V316.21l33.654-22.98v45.011h29.437v29.931H645.221v54.165c0,25.221,3.722,29.172,29.437,29.172v31.412h-4.71c-44.745,0-58.381-14.358-58.381-60.318V368.21H586.84Z" transform="translate(727.016 -293.23)" fill="#fff" stroke="#fff" stroke-miterlimit="10" stroke-width="1"/>
      <path id="Path_978" data-name="Path 978" d="M614.2,294.98h33.388v55.646c9.876-12.611,24.727-20.283,43.263-20.283,36.351,0,57.393,22.486,57.393,61.837v85.805H714.1V395.865c0-22.752-10.9-36.578-32.628-36.578-18.8,0-33.654,14.092-33.654,39.313v79.386H614.2Z" transform="translate(803.58 -288.333)" fill="#fff" stroke="#fff" stroke-miterlimit="10" stroke-width="1"/>
      <g id="surface1_1_" transform="translate(583.208 14.467)">
        <path id="Path_979" data-name="Path 979" d="M477.621,430.025l-43.415-43.415,12.914-12.914,30.5,30.5,77.563-77.6c-22.106-22.106-54.583-35.477-89.869-26.968-36.806,8.888-65.028,39.807-70,77.335-9.04,68.029,57.317,124.776,126.979,98.074a88.867,88.867,0,0,0,55.722-70.08c3.532-23.892-1.063-44.859-11.737-62.711Z" transform="translate(-394.482 -297.039)" fill="#f9ae42"/>
      </g>
    </g>
    <path id="Path_980" data-name="Path 980" d="M448.57,294.11h33.388v55.646c9.876-12.611,24.727-20.283,43.263-20.283,36.35,0,57.393,22.486,57.393,61.837v85.805H548.467V394.995c0-22.752-10.9-36.578-32.628-36.578-18.8,0-33.653,14.092-33.653,39.313v79.386H448.57V294.11Z" transform="translate(581.026 2.462)" fill="#fff" stroke="#fff" stroke-miterlimit="10" stroke-width="1"/>
  </g>
</svg>
