<svg id="Component_5_3" data-name="Component 5 – 3" xmlns="http://www.w3.org/2000/svg" width="46.914" height="42.719" viewBox="0 0 46.914 42.719">
  <g id="surface1" transform="translate(0 0)">
    <path id="Path_2482" data-name="Path 2482" d="M86.273,74.1c-.557-2.379-4.429-4.878-6.831-4.628.183-.889-3.753-3.934-4.52-4.406-4.082-2.527-9.168-5.027-14.182-5.073C50.8,59.9,46.457,67.51,44.375,69.556c-1.269,1.25-3.205,3.083-4.676,4.656h4.676c-1.242,2.12-5.15,6.767-4.676,11.849a10.317,10.317,0,0,1,5-4c-3.032,9.229,1.132,18.217,6.685,20.587-.658-2.962-.731-8,0-9.479,2.813,4.823,9.013,8.248,11.689,9.479,0-5.036-.511-11.284,2.338-16.588,1.845-3.434,5.625-7.109,9.351-7.109h9.351a27.5,27.5,0,0,0,2.338,2.37c0-1.7.155-3.231.11-4.74A12.952,12.952,0,0,0,86.273,74.1ZM69.214,72.083a3.852,3.852,0,0,1-3.8-2.61c-.5-.565-1.945-1.574-2.338-2.37,1,.963,8.474,2.37,9.351,2.37C72.428,70.732,71.917,72.083,69.214,72.083Z" transform="translate(-39.66 -59.993)" fill="#4285f4"/>
  </g>
  <path id="Path_2483" data-name="Path 2483" d="M5462.406,2115.594s-5.078,1.469-4.656,10.891c-.083-.026-3.833-1.11-5.333-4.276S5462.406,2115.594,5462.406,2115.594Z" transform="translate(-5435.126 -2083.766)" fill="#4467a5"/>
</svg>
