<svg id="surface1" xmlns="http://www.w3.org/2000/svg" viewBox="0 0 25.949 25.949">
  <path id="Path_2485" data-name="Path 2485" d="M60.342,47.367A12.974,12.974,0,1,0,73.316,60.342a1.081,1.081,0,1,0-2.162,0,10.836,10.836,0,1,1-3.734-8.16l-2.754,2.754h6.487V48.448l-2.2,2.2A12.93,12.93,0,0,0,60.342,47.367ZM57.926,56.6l-.359,4.464h1.706a1.3,1.3,0,0,1,1.157-.629A1.186,1.186,0,0,1,61.643,61.7a1.153,1.153,0,0,1-1.2,1.229A1.166,1.166,0,0,1,59.2,62H57.44c.03,1.385,1.212,2.428,2.982,2.424a2.762,2.762,0,0,0,3.049-2.771A2.427,2.427,0,0,0,60.992,59.1a1.781,1.781,0,0,0-1.613.781h-.1l.139-1.77h3.577V56.6Z" transform="translate(-47.367 -47.367)" fill="#c4c4c4"/>
</svg>
