<svg xmlns="http://www.w3.org/2000/svg" width="20" height="24.5" viewBox="0 0 20 24.5">
  <g id="Group_2" data-name="Group 2" transform="translate(0.5 0.5)">
    <path id="Path" d="M2.5,2.087A2.329,2.329,0,0,0,5,0H0A2.321,2.321,0,0,0,2.5,2.087Z" transform="translate(7 21.913)" fill="#6d7381"/>
    <path id="Path-2" data-name="Path" d="M16.625,17.075V10.751c0-3.883-1.948-7.134-5.344-7.994V1.9A1.84,1.84,0,0,0,9.5,0,1.84,1.84,0,0,0,7.719,1.9v.86c-3.408.86-5.344,4.1-5.344,7.994v6.324L0,19.6V20.87H19V19.6Z" fill="none" stroke="#8f98ab" stroke-miterlimit="10" stroke-width="1"/>
  </g>
</svg>
