<svg id="surface1" xmlns="http://www.w3.org/2000/svg"  viewBox="0 0 26.973 25.688">
  <defs>
    <style>
      .cls-1 {
        fill: #4285f4;
      }

      .cls-2 {
        fill: #3d6099;
      }
    </style>
  </defs>
  <path id="Path_2101" data-name="Path 2101" class="cls-1" d="M13.138,20v3.853l-2.569,2.569L8,25.138Z" transform="translate(-6.715 -16.147)"/>
  <path id="Path_2102" data-name="Path 2102" class="cls-2" d="M20,49.138v7.707H37.982V49.138L31.56,44H26.422Z" transform="translate(-14.862 -32.44)"/>
  <path id="Path_2103" data-name="Path 2103" class="cls-1" d="M36.551,46.372a2.572,2.572,0,0,0-.963-2.007L30.129,40H22.422l-5.459,4.365A2.572,2.572,0,0,0,16,46.372v9.041H36.551ZM18.569,52.844V46.372l4.751-3.8h5.905l4.756,3.8v6.472Z" transform="translate(-12.146 -29.725)"/>
  <path id="Path_2104" data-name="Path 2104" class="cls-1" d="M24.736,11.3A15.977,15.977,0,0,1,27.8,12.6l-.562.833a10.07,10.07,0,0,0-.993-.512,13.443,13.443,0,0,0-1.269-.487L24.736,11.3M9.5,14.317l.231,1.114a13.049,13.049,0,0,0-.978.918,10.25,10.25,0,0,0-.727.848L7.2,16.64A16.292,16.292,0,0,1,9.5,14.317M19.839,8a19.015,19.015,0,0,0-3.572.336A19.147,19.147,0,0,0,4.195,16.374,1.1,1.1,0,0,0,4.5,17.919L7.742,20.1a1.1,1.1,0,0,0,.622.191,1.017,1.017,0,0,0,.216-.02,1.092,1.092,0,0,0,.7-.452A17.621,17.621,0,0,1,10.6,18.13a16.728,16.728,0,0,1,1.42-1.264,1.123,1.123,0,0,0,.4-1.1l-.632-3.1a17.233,17.233,0,0,1,4.9-1.766.146.146,0,0,0,.045-.01.179.179,0,0,0,.05-.01,16.947,16.947,0,0,1,3.256-.316,18.63,18.63,0,0,1,1.942.105l.652,3.091a1.125,1.125,0,0,0,.783.868,16.5,16.5,0,0,1,1.791.637,16.437,16.437,0,0,1,1.866,1.064,1.088,1.088,0,0,0,.6.176,1.046,1.046,0,0,0,.216-.02,1.109,1.109,0,0,0,.712-.472l2.183-3.246a1.1,1.1,0,0,0-.306-1.545A19.073,19.073,0,0,0,19.839,8Z" transform="translate(-3.999 -8)"/>
  <path id="Path_2105" data-name="Path 2105" class="cls-1" d="M36,32h2.569v3.853H36Z" transform="translate(-25.724 -24.293)"/>
  <path id="Path_2106" data-name="Path 2106" class="cls-1" d="M52,32h2.569v3.853H52Z" transform="translate(-36.587 -24.293)"/>
  <path id="Path_2107" data-name="Path 2107" class="cls-1" d="M12,80H35.12v2.569H12Z" transform="translate(-9.431 -56.88)"/>
  <path id="Path_2108" data-name="Path 2108" class="cls-1" d="M46.569,57.284A1.284,1.284,0,1,1,45.284,56,1.287,1.287,0,0,1,46.569,57.284Z" transform="translate(-31.155 -40.587)"/>
  <path id="Path_2109" data-name="Path 2109" class="cls-1" d="M58.569,57.284A1.284,1.284,0,1,1,57.284,56,1.287,1.287,0,0,1,58.569,57.284Z" transform="translate(-39.302 -40.587)"/>
  <path id="Path_2110" data-name="Path 2110" class="cls-1" d="M34.569,57.284A1.284,1.284,0,1,1,33.284,56,1.287,1.287,0,0,1,34.569,57.284Z" transform="translate(-23.009 -40.587)"/>
  <path id="Path_2111" data-name="Path 2111" class="cls-1" d="M46.569,69.284A1.284,1.284,0,1,1,45.284,68,1.287,1.287,0,0,1,46.569,69.284Z" transform="translate(-31.155 -48.734)"/>
  <path id="Path_2112" data-name="Path 2112" class="cls-1" d="M58.569,69.284A1.284,1.284,0,1,1,57.284,68,1.287,1.287,0,0,1,58.569,69.284Z" transform="translate(-39.302 -48.734)"/>
  <path id="Path_2113" data-name="Path 2113" class="cls-1" d="M34.569,69.284A1.284,1.284,0,1,1,33.284,68,1.287,1.287,0,0,1,34.569,69.284Z" transform="translate(-23.009 -48.734)"/>
  <path id="Path_2114" data-name="Path 2114" class="cls-1" d="M64,12l1.284,3.853,2.569,1.284,2.569-2.569Z" transform="translate(-44.733 -10.716)"/>
</svg>
