<svg xmlns="http://www.w3.org/2000/svg"  viewBox="0 0 14.548 16.937">
    <g id="Group_630" data-name="Group 630" transform="translate(-1353.013 -465.764)">
        <path id="Path_2550" data-name="Path 2550" d="M16.933,4H5L6.618,18.184a.917.917,0,0,0,.852.791h6.992a.917.917,0,0,0,.852-.791Z" transform="translate(1349.319 463.072)" fill="#46526a"/>
        <path id="Path_2551" data-name="Path 2551" d="M3,3H17.548V4.308H3Z" transform="translate(1350.013 463.418)" fill="#4285f4"/>
        <path id="Path_2552" data-name="Path 2552" d="M16.317,3.962,13.522,2H9.8L7,3.962Z" transform="translate(1348.627 463.764)" fill="#4285f4"/>
        <path id="Path_2553" data-name="Path 2553" d="M13.97,19.283H7.2A1.715,1.715,0,0,1,5.549,17.74L3.9,3H17.272L15.621,17.74A1.715,1.715,0,0,1,13.97,19.283ZM5.717,4.714,7.2,17.569H13.97L15.453,4.714Z" transform="translate(1349.702 463.418)" fill="#4285f4"/>
        <path id="Path_2554" data-name="Path 2554" d="M10.308,18.052H9.654c-.393,0-.654-.4-.654-1V7h1.308Z" transform="translate(1348.977 462.034)" fill="#4285f4"/>
        <path id="Path_2555" data-name="Path 2555" d="M13.654,18.052H13V7h1.308V17.047C14.308,17.652,14.047,18.052,13.654,18.052Z" transform="translate(1348.288 462.034)" fill="#4285f4"/>
    </g>
</svg>
