<svg xmlns="http://www.w3.org/2000/svg"  viewBox="0 0 19.601 26.57">
    <g id="Group_639" data-name="Group 639" transform="translate(-29.554 -70.719)">
        <g id="Group_638" data-name="Group 638">
            <path id="Union_276" data-name="Union 276" d="M8.93,25.809a9.454,9.454,0,0,0-1.76-3.657c-.8-.8-7.17-4.2-7.17-11.324C0,4.849,4.389,0,9.8,0s9.8,4.849,9.8,10.828c0,7.121-6.372,10.528-7.17,11.324a9.443,9.443,0,0,0-1.761,3.657.946.946,0,0,1-.87.761A.948.948,0,0,1,8.93,25.809Z" transform="translate(29.554 70.719)" fill="#a25154"/>
        </g>
        <g id="surface1" transform="translate(33.244 74.279)">
            <path id="Path_1728" data-name="Path 1728" d="M44,64h1.349v3.713H44Z" transform="translate(-38.605 -53.603)" fill="#46526a"/>
            <path id="Path_1729" data-name="Path 1729" d="M38.023,78.228,40.047,76H36Z" transform="translate(-31.953 -63.375)" fill="#46526a"/>
            <path id="Path_1730" data-name="Path 1730" d="M12,44H24.14v1.485H12Z" transform="translate(-12 -37.316)" fill="#46526a"/>
            <path id="Path_1731" data-name="Path 1731" d="M44,12h1.349v3.713H44Z" transform="translate(-38.605 -11.257)" fill="#46526a"/>
            <path id="Path_1732" data-name="Path 1732" d="M12,28H24.14v1.485H12Z" transform="translate(-12 -24.287)" fill="#46526a"/>
            <path id="Path_1733" data-name="Path 1733" d="M12,60H24.14v1.485H12Z" transform="translate(-12 -50.345)" fill="#46526a"/>
            <path id="Path_1734" data-name="Path 1734" d="M38.023,8,36,10.228h4.047Z" transform="translate(-31.953 -8)" fill="#46526a"/>
            <path id="Path_1735" data-name="Path 1735" d="M44,64h1.349v3.713H44Z" transform="translate(-38.605 -53.603)" fill="#46526a"/>
            <path id="Path_1736" data-name="Path 1736" d="M38.023,78.228,40.047,76H36Z" transform="translate(-31.953 -63.375)" fill="#46526a"/>
        </g>
    </g>
</svg>
