<svg xmlns="http://www.w3.org/2000/svg" viewBox="0 0 18.7 18.701">
    <path id="settings_50px" d="M10.216,2a.407.407,0,0,0-.4.341l-.4,2.421a6.818,6.818,0,0,0-1.356.557l-2-1.427a.407.407,0,0,0-.523.043L3.96,5.515a.407.407,0,0,0-.045.521L5.32,8.047a6.878,6.878,0,0,0-.569,1.366l-2.411.4a.407.407,0,0,0-.339.4V12.45a.407.407,0,0,0,.335.4l2.412.427a6.838,6.838,0,0,0,.567,1.366L3.893,16.635a.407.407,0,0,0,.043.523L5.517,18.74a.407.407,0,0,0,.52.046l2.015-1.41a6.851,6.851,0,0,0,1.36.561l.4,2.424a.407.407,0,0,0,.4.34h2.236a.407.407,0,0,0,.4-.336l.431-2.434a6.85,6.85,0,0,0,1.354-.568l2.028,1.423a.407.407,0,0,0,.521-.045l1.581-1.583a.407.407,0,0,0,.042-.525l-1.446-2.007a6.817,6.817,0,0,0,.556-1.346l2.446-.429a.407.407,0,0,0,.336-.4V10.215a.407.407,0,0,0-.341-.4l-2.443-.4a6.864,6.864,0,0,0-.557-1.344l1.426-2.032a.407.407,0,0,0-.045-.521L17.16,3.937a.407.407,0,0,0-.525-.042l-2,1.44a6.814,6.814,0,0,0-1.355-.565l-.426-2.433a.407.407,0,0,0-.4-.337Zm.346.813H12.11l.4,2.311a.407.407,0,0,0,.3.325,6.016,6.016,0,0,1,1.663.692.407.407,0,0,0,.448-.017l1.9-1.367,1.1,1.1L16.57,7.781a.407.407,0,0,0-.016.443,6.069,6.069,0,0,1,.685,1.655.407.407,0,0,0,.329.3l2.32.38V12.11l-2.325.408a.407.407,0,0,0-.324.3,6.017,6.017,0,0,1-.684,1.654.407.407,0,0,0,.018.447l1.374,1.906-1.095,1.1-1.927-1.352a.407.407,0,0,0-.445-.014,6.056,6.056,0,0,1-1.659.695.407.407,0,0,0-.3.323l-.411,2.312H10.56l-.383-2.3a.407.407,0,0,0-.3-.328,6.058,6.058,0,0,1-1.669-.689.407.407,0,0,0-.442.016l-1.912,1.34-1.1-1.1,1.351-1.889a.407.407,0,0,0,.017-.447,6.041,6.041,0,0,1-.7-1.673.407.407,0,0,0-.323-.3L2.815,12.11V10.559l2.288-.38a.407.407,0,0,0,.328-.3,6.079,6.079,0,0,1,.7-1.674.407.407,0,0,0-.014-.444L4.776,5.85l1.1-1.1,1.9,1.355a.407.407,0,0,0,.446.017,6.029,6.029,0,0,1,1.668-.685.407.407,0,0,0,.3-.33Zm.79,5.285A3.252,3.252,0,1,0,14.6,11.351,3.259,3.259,0,0,0,11.352,8.1Zm0,.813a2.439,2.439,0,1,1-2.439,2.439A2.433,2.433,0,0,1,11.352,8.911Z" transform="translate(-2.002 -2)" fill="#4285f4"/>
</svg>
