<svg xmlns="http://www.w3.org/2000/svg" xmlns:xlink="http://www.w3.org/1999/xlink"  viewBox="0 0 46.458 56.447">
    <defs>
        <filter  >
            <feOffset dy="3" input="SourceAlpha"/>
            <feGaussianBlur stdDeviation="3" result="blur"/>
            <feFlood flood-opacity="0.161"/>
            <feComposite operator="in" in2="blur"/>
            <feComposite in="SourceGraphic"/>
        </filter>
    </defs>
    <g transform="matrix(1, 0, 0, 1, 0, 0)" >
        <path style="fill:#AFB0B2;" id="Subtraction_173-2" data-name="Subtraction 173" d="M14.228,38.447a1.385,1.385,0,0,1-1.263-1.1c-.341-1.293-1.315-4.064-2.556-5.292a10.5,10.5,0,0,0-.989-.764A27.519,27.519,0,0,1,3.7,26.034,16.443,16.443,0,0,1,0,15.669C0,7.029,6.383,0,14.228,0s14.23,7.029,14.23,15.669a16.443,16.443,0,0,1-3.7,10.366,27.518,27.518,0,0,1-5.724,5.254,10.5,10.5,0,0,0-.99.765c-1.237,1.217-2.214,3.994-2.558,5.292A1.38,1.38,0,0,1,14.228,38.447ZM10.841,21.811,14.189,25.5l3.348-3.688H15.027V10.748h2.511L14.189,7.061l-3.348,3.688h2.511V21.811Z" transform="translate(9 6)" fill="#a25154"/>
    </g>
</svg>
