<svg xmlns="http://www.w3.org/2000/svg"  viewBox="0 0 19.601 26.57">
    <g id="Group_630" data-name="Group 630" transform="translate(-140.475 -70.719)">
        <path id="Union_274" data-name="Union 274" d="M8.93,25.809a9.454,9.454,0,0,0-1.76-3.657c-.8-.8-7.17-4.2-7.17-11.324C0,4.849,4.389,0,9.8,0s9.8,4.849,9.8,10.828c0,7.121-6.372,10.528-7.17,11.324a9.443,9.443,0,0,0-1.761,3.657.946.946,0,0,1-.87.761A.948.948,0,0,1,8.93,25.809Z" transform="translate(140.475 70.719)" fill="#afb0b2"/>
        <g id="surface1" transform="translate(144.167 74.279)">
            <path id="Path_1738" data-name="Path 1738" d="M44,64h1.349v3.713H44Z" transform="translate(-38.605 -53.603)" fill="#46526a"/>
            <path id="Path_1739" data-name="Path 1739" d="M38.023,78.228,40.047,76H36Z" transform="translate(-31.953 -63.375)" fill="#46526a"/>
            <path id="Path_1740" data-name="Path 1740" d="M12,44H24.14v1.485H12Z" transform="translate(-12 -37.316)" fill="#46526a"/>
            <path id="Path_1741" data-name="Path 1741" d="M44,12h1.349v3.713H44Z" transform="translate(-38.605 -11.257)" fill="#46526a"/>
            <path id="Path_1742" data-name="Path 1742" d="M12,28H24.14v1.485H12Z" transform="translate(-12 -24.287)" fill="#46526a"/>
            <path id="Path_1743" data-name="Path 1743" d="M12,60H24.14v1.485H12Z" transform="translate(-12 -50.345)" fill="#46526a"/>
            <path id="Path_1744" data-name="Path 1744" d="M38.023,8,36,10.228h4.047Z" transform="translate(-31.953 -8)" fill="#46526a"/>
            <path id="Path_1745" data-name="Path 1745" d="M44,64h1.349v3.713H44Z" transform="translate(-38.605 -53.603)" fill="#46526a"/>
            <path id="Path_1746" data-name="Path 1746" d="M38.023,78.228,40.047,76H36Z" transform="translate(-31.953 -63.375)" fill="#46526a"/>
        </g>
    </g>
</svg>
