<svg xmlns="http://www.w3.org/2000/svg" xmlns:xlink="http://www.w3.org/1999/xlink" viewBox="0 0 36.924 43.566">
    <defs>
        <filter  x="0" y="0" width="36.924" height="43.566" filterUnits="userSpaceOnUse">
            <feOffset dy="3" input="SourceAlpha"/>
            <feGaussianBlur stdDeviation="3" result="blur"/>
            <feFlood flood-opacity="0.161"/>
            <feComposite operator="in" in2="blur"/>
            <feComposite in="SourceGraphic"/>
        </filter>
    </defs>
    <g transform="matrix(1, 0, 0, 1, 0, 0)" >
        <path id="Subtraction_161-2" data-name="Subtraction 161" d="M9.461,25.566a.919.919,0,0,1-.84-.733,9.224,9.224,0,0,0-1.7-3.519,6.972,6.972,0,0,0-.658-.508,18.294,18.294,0,0,1-3.807-3.494A10.934,10.934,0,0,1,0,10.419C0,4.674,4.244,0,9.461,0s9.462,4.674,9.462,10.419a10.934,10.934,0,0,1-2.458,6.893,18.293,18.293,0,0,1-3.806,3.494,6.975,6.975,0,0,0-.658.508,9.2,9.2,0,0,0-1.7,3.519A.918.918,0,0,1,9.461,25.566ZM6.931,12.283h0L11.9,15.817l1.015-.721L7.946,11.561l3.945-2.8.011.008,1.015-.722-.012-.008.012-.008L11.9,7.305l-.011.009L6.919,3.78,5.9,4.5l4.973,3.534-3.945,2.8-.013-.008L5.9,11.553l.012.008-.012.009,1.015.721.012-.008Z" transform="translate(9 6)" fill="#afb0b2"/>
    </g>
</svg>
