<svg id="Icon_Customization" xmlns="http://www.w3.org/2000/svg" width="19" height="20" viewBox="0 0 19 20">
  <defs>
    <style>
      .cls-1, .cls-2 {
        fill: #4285f4;
      }

      .cls-1 {
        opacity: 0.5;
      }
    </style>
  </defs>
  <path id="Rectangle_Copy_40" data-name="Rectangle Copy 40" class="cls-1" d="M0,0H12a2,2,0,0,1,2,2V12a2,2,0,0,1-2,2H2a2,2,0,0,1-2-2V0A0,0,0,0,1,0,0Z"/>
  <path id="Rectangle" class="cls-2" d="M0,0H12a2,2,0,0,1,2,2V12a2,2,0,0,1-2,2H2a2,2,0,0,1-2-2V0A0,0,0,0,1,0,0Z" transform="translate(5 6)"/>
</svg>
