<svg xmlns="http://www.w3.org/2000/svg" viewBox="0 0 26.5 27.414">
  <g id="chart" transform="translate(-8)">
    <g id="Group_229" data-name="Group 229" transform="translate(8)">
      <g id="Group_228" data-name="Group 228" transform="translate(0)">
        <path id="Path_607" data-name="Path 607" d="M34.5,19.19a6.391,6.391,0,0,0-6.385-6.4H28.1a6.309,6.309,0,0,0-.914.073V2.284a.457.457,0,0,0-.457-.457H21.25V.914A.914.914,0,0,0,20.336,0H14.853a.914.914,0,0,0-.914.914v.914H8.457A.457.457,0,0,0,8,2.284V26.957a.457.457,0,0,0,.457.457H26.733a.457.457,0,0,0,.457-.457V25.513A6.4,6.4,0,0,0,34.5,19.19ZM33.14,17.02q.022.051.043.1l-4.855,1.518-2.393-4.486A5.483,5.483,0,0,1,33.14,17.02ZM14.853.914h5.483V3.655H14.853ZM26.276,26.5H8.914V2.741H13.94v.914a.914.914,0,0,0,.914.914h5.483a.914.914,0,0,0,.914-.914V2.741h5.026V13.072a6.314,6.314,0,0,0-1.182.474,6.394,6.394,0,0,0,1.182,11.77ZM28.1,24.672h0A5.483,5.483,0,0,1,25.13,14.585L27.7,19.4l0,0c.007.013.018.024.026.036a.487.487,0,0,0,.051.066l.006.006.032.023a.443.443,0,0,0,.068.046l.013.009,4.882,2.441A5.448,5.448,0,0,1,28.1,24.672Zm5.088-3.45-3.869-1.935.62-.194L33.456,18a5.5,5.5,0,0,1,.131,1.192A5.4,5.4,0,0,1,33.191,21.223Z" transform="translate(-8)" fill="#4285f4"/>
      </g>
    </g>
    <g id="Group_231" data-name="Group 231" transform="translate(9.829 5.484)">
      <g id="Group_230" data-name="Group 230">
        <path id="Path_608" data-name="Path 608" d="M46.566,97.428a3.648,3.648,0,0,0-5.853.119l.371.266-.372-.266a3.654,3.654,0,1,0,5.853-.119Zm-2.426-.456a2.7,2.7,0,0,1,1.391.685l-.738.574a1.806,1.806,0,0,0-.653-.325Zm-.466,1.785a.914.914,0,1,1-.9.913A.909.909,0,0,1,43.674,98.757Zm-.448-1.782V97.9a1.832,1.832,0,0,0-.714.369l-.757-.541A2.748,2.748,0,0,1,43.226,96.974Zm-.016,5.38a2.741,2.741,0,0,1-2.269-2.684,2.711,2.711,0,0,1,.279-1.2l.762.544a1.8,1.8,0,0,0-.127.653,1.824,1.824,0,0,0,3.59.457h.938A2.741,2.741,0,0,1,43.21,102.354Zm2.235-3.141a1.761,1.761,0,0,0-.091-.263l.743-.578a2.686,2.686,0,0,1,.289.841Z" transform="translate(-40.03 -96.016)" fill="#4285f4"/>
      </g>
    </g>
    <g id="Group_233" data-name="Group 233" transform="translate(18.937 6.382)">
      <g id="Group_232" data-name="Group 232" transform="translate(0 0)">
        <rect id="Rectangle_1534" data-name="Rectangle 1534" width="6" transform="translate(0.063 0.204)" fill="#4285f4"/>
      </g>
    </g>
    <g id="Group_235" data-name="Group 235" transform="translate(18.937 8.065)">
      <g id="Group_234" data-name="Group 234" transform="translate(0 0)">
        <rect id="Rectangle_1535" data-name="Rectangle 1535" width="6" height="1" transform="translate(0.063 -0.478)" fill="#4285f4"/>
      </g>
    </g>
    <g id="Group_237" data-name="Group 237" transform="translate(18.937 9.747)">
      <g id="Group_236" data-name="Group 236" transform="translate(0 0)">
        <rect id="Rectangle_1536" data-name="Rectangle 1536" width="6" height="1" transform="translate(0.063 -0.161)" fill="#4285f4"/>
      </g>
    </g>
    <g id="Group_239" data-name="Group 239" transform="translate(18.937 11.43)">
      <g id="Group_238" data-name="Group 238" transform="translate(0 0)">
        <rect id="Rectangle_1537" data-name="Rectangle 1537" width="3" height="1" transform="translate(0.063 0.157)" fill="#4285f4"/>
      </g>
    </g>
    <g id="Group_241" data-name="Group 241" transform="translate(9.828 22.388)">
      <g id="Group_240" data-name="Group 240">
        <path id="Path_609" data-name="Path 609" d="M41.828,392H40.457a.457.457,0,0,0-.457.457v2.284a.457.457,0,0,0,.457.457h1.371a.457.457,0,0,0,.457-.457v-2.284A.457.457,0,0,0,41.828,392Zm-.457,2.284h-.457v-1.371h.457Z" transform="translate(-40 -392)" fill="#4285f4"/>
      </g>
    </g>
    <g id="Group_243" data-name="Group 243" transform="translate(12.569 20.56)">
      <g id="Group_242" data-name="Group 242" transform="translate(0)">
        <path id="Path_610" data-name="Path 610" d="M89.828,360H88.457a.457.457,0,0,0-.457.457v4.112a.457.457,0,0,0,.457.457h1.371a.457.457,0,0,0,.457-.457v-4.112A.457.457,0,0,0,89.828,360Zm-.457,4.112h-.457v-3.2h.457Z" transform="translate(-88 -360)" fill="#4285f4"/>
      </g>
    </g>
    <g id="Group_245" data-name="Group 245" transform="translate(15.31 18.276)">
      <g id="Group_244" data-name="Group 244">
        <path id="Path_611" data-name="Path 611" d="M137.828,320h-1.371a.457.457,0,0,0-.457.457v6.4a.457.457,0,0,0,.457.457h1.371a.457.457,0,0,0,.457-.457v-6.4A.457.457,0,0,0,137.828,320Zm-.457,6.4h-.457v-5.483h.457Z" transform="translate(-136 -320)" fill="#4285f4"/>
      </g>
    </g>
    <g id="Group_247" data-name="Group 247" transform="translate(18.052 15.991)">
      <g id="Group_246" data-name="Group 246" transform="translate(0)">
        <path id="Path_612" data-name="Path 612" d="M185.828,280h-1.371a.457.457,0,0,0-.457.457v8.681a.457.457,0,0,0,.457.457h1.371a.457.457,0,0,0,.457-.457v-8.681A.457.457,0,0,0,185.828,280Zm-.457,8.681h-.457v-7.767h.457Z" transform="translate(-184 -280)" fill="#4285f4"/>
      </g>
    </g>
    <g id="Group_249" data-name="Group 249" transform="translate(9.683 13.953)">
      <g id="Group_248" data-name="Group 248" transform="translate(0 0)">
        <rect id="Rectangle_1538" data-name="Rectangle 1538" width="4" height="1" transform="translate(0.317 -0.367)" fill="#4285f4"/>
      </g>
    </g>
    <g id="Group_251" data-name="Group 251" transform="translate(9.683 14.795)">
      <g id="Group_250" data-name="Group 250" transform="translate(0 0)">
        <rect id="Rectangle_1539" data-name="Rectangle 1539" width="4" height="1" transform="translate(0.317 -0.209)" fill="#4285f4"/>
      </g>
    </g>
    <g id="Group_253" data-name="Group 253" transform="translate(9.683 16.477)">
      <g id="Group_252" data-name="Group 252" transform="translate(0 0)">
        <rect id="Rectangle_1540" data-name="Rectangle 1540" width="1" height="1" transform="translate(0.317 0.109)" fill="#4285f4"/>
      </g>
    </g>
  </g>
</svg>
