<svg xmlns="http://www.w3.org/2000/svg" width="25.617" height="26.5" viewBox="0 0 25.617 26.5">
  <g id="outline" transform="translate(-16 -16)">
    <circle id="Ellipse_349" data-name="Ellipse 349" transform="translate(26 21.216)" fill="#4285f4"/>
    <path id="Path_613" data-name="Path 613" d="M304.442,75.092h2.208a.442.442,0,0,0,.442-.442V72.442A.442.442,0,0,0,306.65,72h-2.208a.442.442,0,0,0-.442.442V74.65A.442.442,0,0,0,304.442,75.092Zm.442-2.208h1.325v1.325h-1.325Z" transform="translate(-272.1 -52.908)" fill="#4285f4"/>
    <path id="Path_614" data-name="Path 614" d="M304.442,147.092h2.208a.442.442,0,0,0,.442-.442v-2.208a.442.442,0,0,0-.442-.442h-2.208a.442.442,0,0,0-.442.442v2.208A.442.442,0,0,0,304.442,147.092Zm.442-2.208h1.325v1.325h-1.325Z" transform="translate(-272.1 -120.933)" fill="#4285f4"/>
    <path id="Path_615" data-name="Path 615" d="M304.442,219.092h2.208a.442.442,0,0,0,.442-.442v-2.208a.442.442,0,0,0-.442-.442h-2.208a.442.442,0,0,0-.442.442v2.208A.442.442,0,0,0,304.442,219.092Zm.442-2.208h1.325v1.325h-1.325Z" transform="translate(-272.1 -188.958)" fill="#4285f4"/>
    <rect id="Rectangle_1541" data-name="Rectangle 1541" width="1" height="1" transform="translate(26 36.216)" fill="#4285f4"/>
    <rect id="Rectangle_1542" data-name="Rectangle 1542" width="1" height="1" transform="translate(24 36.216)" fill="#4285f4"/>
    <rect id="Rectangle_1543" data-name="Rectangle 1543" width="1" height="1" transform="translate(22 36.216)" fill="#4285f4"/>
    <path id="Path_616" data-name="Path 616" d="M58.6,77.25H50.65a2.65,2.65,0,0,0,0,5.3h.883v-.883H50.65a1.767,1.767,0,1,1,0-3.533H58.6a2.65,2.65,0,1,0,0-5.3H55.508V71.95a.442.442,0,0,0-.442-.442H51.533a.442.442,0,0,0-.442.442v.883H50.65a1.767,1.767,0,0,1,0-3.533H58.6a2.651,2.651,0,0,0,2.65-2.65V64h-.883v2.65A1.767,1.767,0,0,1,58.6,68.417H57.016l.4-.4a2.523,2.523,0,0,0,.744-1.8v-.014a2.208,2.208,0,1,0-4.417,0v.014a2.523,2.523,0,0,0,.744,1.8l.4.4H50.65a2.65,2.65,0,1,0,0,5.3h.442v1.325a.442.442,0,0,0,.442.442h.647l.752,1.128a.442.442,0,0,0,.735,0l.752-1.128h.647a.442.442,0,0,0,.442-.442V73.717H58.6a1.767,1.767,0,1,1,0,3.533ZM54.625,66.208a1.325,1.325,0,1,1,2.65,0v.014a1.645,1.645,0,0,1-.485,1.171l-.84.84-.84-.84a1.645,1.645,0,0,1-.485-1.171Zm0,8.392h-.442a.442.442,0,0,0-.367.2l-.516.774-.516-.774a.442.442,0,0,0-.367-.2h-.442V72.392h2.65Z" transform="translate(-30.233 -45.35)" fill="#4285f4"/>
    <path id="Path_617" data-name="Path 617" d="M40.733,16H39.408a.442.442,0,0,0-.442.442v.442H18.208A2.211,2.211,0,0,0,16,19.092v21.2A2.211,2.211,0,0,0,18.208,42.5h1.767a.442.442,0,0,0,.442-.442V38.967h8.347l-.008.017L28.75,39c0,.012-.009.024-.013.036l0,.009L27.941,41.9a.442.442,0,0,0,.586.53l2.76-1.079.006,0,.04-.018.008,0a.443.443,0,0,0,.045-.029l.007-.006a.408.408,0,0,0,.033-.028l.014-.013.016-.016L33.5,38.967h7.232c.975,0,.748-22.966,0-22.967Zm0,.883c.375,0,.884.784.883.883-.268,17.748-.573,17.666-.883,17.667l-.883-3.809ZM31.094,40.314l-.328-.3,5.55-5.978ZM35.407,32.9l-.36.529s-.3.437-1.042,1.462a4.247,4.247,0,0,1-.634.923l-3.26,3.611-.328-.3,4.222-4.676Zm1.9.529L36,32.247l.592-.656L37.9,32.775Zm1.708-2.23a.881.881,0,0,1-.228.592l-.3.328-.588-.531-.723-.654.3-.328a.883.883,0,0,1,1.539.592ZM16.883,19.092a1.327,1.327,0,0,1,1.325-1.325H38.967v2.208h-2.65a.442.442,0,1,0,0,.883h2.65v3.533h-2.65a.442.442,0,1,0,0,.883h2.65v3.092h-2.65a.442.442,0,1,0,0,.883h2.65v.391a1.766,1.766,0,0,0-2.143.374l-.592.656-1.184,1.311h0l-3.234,3.582-1.371,1.518a2.29,2.29,0,0,0-1.7-.766H27.483V37.2h1.259a1.4,1.4,0,0,1,1.1.544l-.307.34H18.208a2.2,2.2,0,0,0-1.325.443Zm2.65,22.525H18.208a1.325,1.325,0,1,1,0-2.65h1.325Zm9.5-.333.365-1.315.593.536.313.283Zm11.7-3.2H34.3l.787-.871L37.67,34.35l1.184-1.311h0l.112-.124v2.96a.442.442,0,0,0,.442.442h1.325a.883.883,0,1,1,0,1.767Z" fill="#4285f4"/>
  </g>
</svg>
