<svg xmlns="http://www.w3.org/2000/svg" viewBox="0 0 25.913 25.913">
  <g id="settings" opacity="0.8">
    <circle id="Ellipse_341" data-name="Ellipse 341" cx="3" cy="3" r="3" transform="translate(9.913 9.913)" stroke-width="2" stroke="#4285f4" stroke-linecap="round" stroke-linejoin="round" fill="none"/>
    <path id="Path_445" data-name="Path 445" d="M21,16.217a1.793,1.793,0,0,0,.359,1.978l.065.065a2.175,2.175,0,1,1-3.076,3.076l-.065-.065a1.808,1.808,0,0,0-3.065,1.283v.185a2.174,2.174,0,1,1-4.348,0v-.1A1.793,1.793,0,0,0,9.7,21a1.793,1.793,0,0,0-1.978.359l-.065.065a2.175,2.175,0,1,1-3.076-3.076l.065-.065a1.808,1.808,0,0,0-1.283-3.065H3.174a2.174,2.174,0,1,1,0-4.348h.1A1.793,1.793,0,0,0,4.913,9.7a1.793,1.793,0,0,0-.359-1.978l-.065-.065A2.175,2.175,0,1,1,7.565,4.576l.065.065A1.793,1.793,0,0,0,9.609,5H9.7a1.793,1.793,0,0,0,1.087-1.641V3.174a2.174,2.174,0,1,1,4.348,0v.1A1.808,1.808,0,0,0,18.2,4.554l.065-.065a2.175,2.175,0,1,1,3.076,3.076l-.065.065a1.793,1.793,0,0,0-.359,1.978V9.7a1.793,1.793,0,0,0,1.641,1.087h.185a2.174,2.174,0,1,1,0,4.348h-.1A1.793,1.793,0,0,0,21,16.217Z" fill="none" stroke="#4285f4" stroke-linecap="round" stroke-linejoin="round" stroke-width="2"/>
  </g>
</svg>
