<svg xmlns="http://www.w3.org/2000/svg" viewBox="0 0 39.848 26.131">
  <g id="dynamic-arrow" transform="translate(0 -49.869)">
    <path id="path27088" d="M13.11,49.869a.688.688,0,0,0-.64.464l-5.5,16.039H.7a.688.688,0,1,0,0,1.375H7.459a.688.688,0,0,0,.65-.464l5.066-14.767,9.371,23.054a.688.688,0,0,0,1.258.037l3.744-7.86h4.139v3.438a.642.642,0,0,0,.972.55l6.877-4.126a.642.642,0,0,0,0-1.1L32.66,62.384a.642.642,0,0,0-.972.525c0,.009,0,.017,0,.026v3.438H27.114a.688.688,0,0,0-.621.392l-3.26,6.844L13.758,50.3A.688.688,0,0,0,13.11,49.869Zm19.861,14.2,4.987,2.992-4.987,2.992Zm.72,1.271a.344.344,0,0,0-.169.638l2.2,1.375a.344.344,0,0,0,.38-.573l-.015-.01-2.2-1.375A.342.342,0,0,0,33.691,65.339Z" transform="translate(0)" fill="#4285f4"/>
  </g>
</svg>
