<svg xmlns="http://www.w3.org/2000/svg" viewBox="0 0 23.688 12.35">
  <g id="surface1" transform="translate(-0.656 -8)">
    <path id="Path_2095" data-name="Path 2095" d="M12.5,8C6.066,8,1.115,13.669,1.115,13.669l-.458.507.458.507s4.514,5.147,10.517,5.62a7.84,7.84,0,0,0,1.737,0c6-.473,10.517-5.62,10.517-5.62l.458-.507-.458-.507S18.934,8,12.5,8Zm0,1.544a11.181,11.181,0,0,1,4.631,1.086A5.319,5.319,0,0,1,17.9,13.4a5.4,5.4,0,0,1-4.8,5.379c-.015,0-.033,0-.048,0-.184.009-.368.024-.555.024-.205,0-.4-.012-.6-.024a5.418,5.418,0,0,1-4.052-8.129H7.82A11.208,11.208,0,0,1,12.5,9.544Zm0,1.544A2.316,2.316,0,1,0,14.816,13.4,2.316,2.316,0,0,0,12.5,11.088Zm-6.754.724a6.863,6.863,0,0,0,.868,5.283,17.907,17.907,0,0,1-3.739-2.919A18.47,18.47,0,0,1,5.746,11.811Zm13.508,0a18.474,18.474,0,0,1,2.871,2.364,17.91,17.91,0,0,1-3.739,2.919,6.863,6.863,0,0,0,.868-5.283Z" fill="#91b9fb"/>
  </g>
</svg>
